<?xml version="1.0" standalone="no"?>
<svg xmlns:xlink="http://www.w3.org/1999/xlink" id="wave" style="transform:rotate(0deg); transition: 0.3s" viewBox="0 0 1440 120" version="1.1" xmlns="http://www.w3.org/2000/svg"><defs><linearGradient id="sw-gradient-0" x1="0" x2="0" y1="1" y2="0"><stop stop-color="rgba(46, 46, 46, 1)" offset="0%"/><stop stop-color="rgba(18, 18, 18, 1)" offset="100%"/></linearGradient></defs><path style="transform:translate(0, 0px); opacity:1" fill="url(#sw-gradient-0)" d="M0,24L26.7,20C53.3,16,107,8,160,10C213.3,12,267,24,320,32C373.3,40,427,44,480,48C533.3,52,587,56,640,48C693.3,40,747,20,800,16C853.3,12,907,24,960,26C1013.3,28,1067,20,1120,16C1173.3,12,1227,12,1280,16C1333.3,20,1387,28,1440,36C1493.3,44,1547,52,1600,60C1653.3,68,1707,76,1760,78C1813.3,80,1867,76,1920,76C1973.3,76,2027,80,2080,76C2133.3,72,2187,60,2240,62C2293.3,64,2347,80,2400,90C2453.3,100,2507,104,2560,104C2613.3,104,2667,100,2720,98C2773.3,96,2827,96,2880,88C2933.3,80,2987,64,3040,58C3093.3,52,3147,56,3200,60C3253.3,64,3307,68,3360,58C3413.3,48,3467,24,3520,22C3573.3,20,3627,40,3680,50C3733.3,60,3787,60,3813,60L3840,60L3840,120L3813.3,120C3786.7,120,3733,120,3680,120C3626.7,120,3573,120,3520,120C3466.7,120,3413,120,3360,120C3306.7,120,3253,120,3200,120C3146.7,120,3093,120,3040,120C2986.7,120,2933,120,2880,120C2826.7,120,2773,120,2720,120C2666.7,120,2613,120,2560,120C2506.7,120,2453,120,2400,120C2346.7,120,2293,120,2240,120C2186.7,120,2133,120,2080,120C2026.7,120,1973,120,1920,120C1866.7,120,1813,120,1760,120C1706.7,120,1653,120,1600,120C1546.7,120,1493,120,1440,120C1386.7,120,1333,120,1280,120C1226.7,120,1173,120,1120,120C1066.7,120,1013,120,960,120C906.7,120,853,120,800,120C746.7,120,693,120,640,120C586.7,120,533,120,480,120C426.7,120,373,120,320,120C266.7,120,213,120,160,120C106.7,120,53,120,27,120L0,120Z"/></svg>